<svg height="512pt" viewBox="-77 0 512 512" width="512pt" xmlns="http://www.w3.org/2000/svg"><g fill-rule="evenodd"><path d="m347.535156 139.425781c-5.523437 0-10 4.476563-10 10v342.574219h-317.535156v-20.003906c0-5.519532-4.476562-10-10-10s-10 4.480468-10 10v30.003906c0 5.523438 4.476562 10 10 10h337.535156c5.523438 0 10-4.476562 10-10v-352.574219c0-5.523437-4.476562-10-10-10zm0 0"/><path d="m347.535156 29.421875h-83.578125v-19.421875c0-5.523438-4.476562-10-10-10h-150.378906c-5.523437 0-10 4.476562-10 10v19.421875h-83.578125c-5.523438 0-10 4.476563-10 10v352.574219c0 5.523437 4.476562 10 10 10s10-4.476563 10-10v-342.574219h73.578125v19.421875c0 5.523438 4.476563 10 10 10h150.378906c5.523438 0 10-4.476562 10-10v-19.421875h73.578125v20.003906c0 5.519531 4.476563 10 10 10 5.523438 0 10-4.480469 10-10v-30.003906c0-5.523437-4.476562-10-10-10zm-103.578125 29.421875h-130.378906v-38.84375h130.378906zm0 0"/><path d="m118.695312 124.226562h-57.207031c-5.523437 0-10 4.476563-10 10v57.210938c0 5.523438 4.476563 10 10 10h57.207031c5.523438 0 10-4.476562 10-10v-57.210938c0-5.523437-4.476562-10-10-10zm-10 57.210938h-37.207031v-37.210938h37.207031zm0 0"/><path d="m51.488281 303.132812c0 5.523438 4.476563 10 10 10h57.207031c5.523438 0 10-4.476562 10-10v-57.207031c0-5.523437-4.476562-10-10-10h-57.207031c-5.523437 0-10 4.476563-10 10zm20-47.207031h37.207031v37.207031h-37.207031zm0 0"/><path d="m85.871094 398.234375-17.3125-17.308594c-3.90625-3.90625-10.238282-3.90625-14.140625 0-3.90625 3.90625-3.90625 10.234375 0 14.140625l24.382812 24.382813c1.953125 1.953125 4.507813 2.929687 7.070313 2.929687 2.558594 0 5.117187-.976562 7.070312-2.929687l48.765625-48.761719c3.902344-3.90625 3.902344-10.238281 0-14.144531-3.90625-3.90625-10.238281-3.902344-14.144531 0zm0 0"/><path d="m171.007812 172.832031h115.8125c5.523438 0 10-4.476562 10-10 0-5.523437-4.476562-10-10-10h-115.8125c-5.523437 0-10 4.476563-10 10 0 5.523438 4.476563 10 10 10zm0 0"/><path d="m171.007812 291.335938h115.8125c5.523438 0 10-4.476563 10-10 0-5.523438-4.476562-10-10-10h-115.8125c-5.523437 0-10 4.476562-10 10 0 5.523437 4.476563 10 10 10zm0 0"/><path d="m171.007812 409.839844h115.8125c5.523438 0 10-4.476563 10-10 0-5.523438-4.476562-10-10-10h-115.8125c-5.523437 0-10 4.476562-10 10 0 5.523437 4.476563 10 10 10zm0 0"/><path d="m10 441.996094c5.507812 0 10-4.488282 10-10 0-5.507813-4.492188-10-10-10s-10 4.492187-10 10c0 5.511718 4.492188 10 10 10zm0 0"/><path d="m347.535156 99.425781c-5.507812 0-10 4.488281-10 10 0 5.507813 4.492188 10 10 10 5.507813 0 10-4.492187 10-10 0-5.511719-4.492187-10-10-10zm0 0"/></g></svg>