<?xml version="1.0" encoding="utf-8"?>
<!-- Generator: Adobe Illustrator 19.2.0, SVG Export Plug-In . SVG Version: 6.00 Build 0)  -->
<svg version="1.1" xmlns="http://www.w3.org/2000/svg" xmlns:xlink="http://www.w3.org/1999/xlink" >
	<defs>
		<symbol id="plus" viewBox="0 0 36 36">
                       <path d="M5740 12784 c-199 -42 -369 -198 -438 -399 l-27 -80 -3 -2387 -2 -2388 -2356 0 c-2619 0 -2435 5 -2584 -68 -104 -50 -212 -158 -263 -263 -66 -134 -67 -146 -67 -799 0 -651 2 -666 66 -795 69 -141 187 -243 344 -299 l85 -31 2387 -3 2388 -2 2 -2388 32387 28 -80 c73 -206 239 -357 443 -400 101 -21 1207 -21 1308 0 204 43 370 194 443 400 l28 80 3 2387 2 2388 2388 2 2387 3 85 31 c157 56 275 158 344 299 64 129 66 144 66 795 0 653 -1 665 -67 799 -51 105 -159 213 -263 263 -149 73 35 68 -2584 68 l-2356 0 -2 2388 -3 2387 -27 80 c-70 203 -240 357 -443 400 -100 21 -1217 20 -1315 -1z"/>
                </symbol>
                
		<symbol id="expand_more" viewBox="0 0 36 36">
                        <path d="M24.88 12.88L18 19.76l-6.88-6.88L9 15l9 9 9-9z"/>
                </symbol>
		
		<symbol id="arrow" viewBox="0 0 20 20"> 
			<path d="M7.5,0.5c3.9,0,7,3.1,7,7c0,3.9-3.1,7-7,7c-3.9,0-7-3.1-7-7l0,0C0.5,3.6,3.6,0.5,7.5,0.5 C7.5,0.5,7.5,0.5,7.5,0.5L7.5,0.5L7.5,0.5z M6.1,4.7v5.6l4.2-2.8L6.1,4.7z"/>
		</symbol>
	
		<symbol id="arrow-d" viewBox="0 0 512 512"> 
			<path d="m498.73177,121.50244l-24.48931,-26.30466c-8.48644,-8.64703 -18.39815,-12.97178 -29.71226,-12.97178c-11.54746,0 -21.34135,4.32474 -29.39769,12.97178l-158.72237,170.43741l-158.72122,-170.43249c-8.0552,-8.64703 -17.85138,-12.97178 -29.39426,-12.97178c-11.31983,0 -21.22925,4.32474 -29.71683,12.97178l-24.16788,26.30466c-8.27482,8.87917 -12.40994,19.51969 -12.40994,31.91172c0,12.62295 4.1397,23.14309 12.4088,31.55798l212.60593,228.29268c7.84129,8.8804 17.63404,13.32429 29.39426,13.32429c11.53945,0 21.44773,-4.44266 29.71455,-13.32429l212.60708,-228.29268c8.05634,-8.65194 12.08737,-19.17086 12.08737,-31.55798c0.00114,-12.16112 -4.02989,-22.79549 -12.08623,-31.91663l0,-0.00001z" id="svg_1" fill="black"/>
		</symbol>

		<symbol id="cross" viewBox="0 0 20 20">
			<path d="M17.1 5.2l-2.6-2.6-4.6 4.7-4.7-4.7-2.5 2.6 4.7 4.7-4.7 4.7 2.5 2.5 4.7-4.7 4.6 4.7 2.6-2.5-4.7-4.7"/>
		</symbol>
		
		<symbol id="ici" viewBox="0 0 512 512">
			<path d="m255.83333,1.375c-96.24855,0 -174.58333,75.12292 -174.58333,167.52292c0,197.09445 159.67543,332.45133 166.47659,338.14156c4.61507,3.89176 11.5984,3.89176 16.21348,0c6.80116,-5.69024 166.41586,-141.0471 166.47659,-338.14156c0,-92.40001 -78.30442,-167.52292 -174.58333,-167.52292m0,479.92574c-32.30551,-30.19068 -149.65586,-151.1598 -149.65586,-312.40282c0,-79.01468 67.16145,-143.3173 149.65586,-143.3173s149.65586,64.30262 149.65586,143.3173c-0.06073,161.00715 -117.38072,282.15317 -149.65586,312.40282m0,-407.27941c-55.10761,0 -99.77058,43.34014 -99.77058,96.88143s44.63261,96.88143 99.77058,96.88143s99.77058,-43.34014 99.77058,-96.88143s-44.66297,-96.88143 -99.77058,-96.88143m0,169.52777c-41.26239,0 -74.81275,-32.57881 -74.81275,-72.64634s33.55036,-72.64634 74.81275,-72.64634s74.81275,32.57881 74.81275,72.64634s-33.55036,72.64634 -74.81275,72.64634"/>
		</symbol>
	  
		<symbol id="play" viewBox="0 0 20 20">
			<path d="M7.5,0.5c3.9,0,7,3.1,7,7c0,3.9-3.1,7-7,7c-3.9,0-7-3.1-7-7l0,0C0.5,3.6,3.6,0.5,7.5,0.5 C7.5,0.5,7.5,0.5,7.5,0.5L7.5,0.5L7.5,0.5z M6.1,4.7v5.6l4.2-2.8L6.1,4.7z"/>
		</symbol>
		
		<symbol id="delete" viewBox="0 0 512 512">
			<path fill="#e76e54" d="m415.40234,495.42188l-159.40625,-159.41016l-159.40625,159.41016c-22.09765,22.09375 -57.92187,22.09375 -80.01953,0c-22.09375,-22.09766 -22.09375,-57.92188 0,-80.01954l159.41016,-159.40625l-159.41016,-159.40625c-22.09375,-22.09765 -22.09375,-57.92187 0,-80.01953c22.09766,-22.09375 57.92188,-22.09375 80.01953,0l159.40625,159.41016l159.40625,-159.41016c22.09766,-22.09375 57.92188,-22.09375 80.01954,0c22.09375,22.09766 22.09375,57.92188 0,80.01953l-159.41016,159.40625l159.41016,159.40625c22.09375,22.09766 22.09375,57.92188 0,80.01954c-22.09766,22.09375 -57.92188,22.09375 -80.01954,0zm0,0"/>
		</symbol>
		
		<symbol id="edit" viewBox="0 0 512 512">
			<path d="m475.75215,303.24831c-7.09081,0 -12.8377,5.58144 -12.8377,12.46815l0,110.70355c-0.02507,20.65038 -17.25066,37.38497 -38.5131,37.40446l-360.21284,0c-21.26244,-0.01949 -38.48803,-16.75408 -38.5131,-37.40446l0,-324.90737c0.02507,-20.64551 17.25066,-37.38011 38.5131,-37.40446l113.98474,0c7.09083,0 12.8377,-5.58146 12.8377,-12.46815c0,-6.88185 -5.74687,-12.46815 -12.8377,-12.46815l-113.98474,0c-35.43406,0.03896 -64.14839,27.9267 -64.1885,62.34076l0,324.91225c0.04012,34.41404 28.75445,62.3018 64.1885,62.34076l360.21284,0c35.43407,-0.03896 64.14839,-27.92672 64.1885,-62.34076l0,-110.70843c0,-6.88671 -5.74687,-12.46815 -12.8377,-12.46815zm0,0"/>
			<path d="m477.2935,17.57497c-24.16455,-23.08564 -63.3413,-23.08564 -87.50585,0l-245.30854,234.35591c-1.68116,1.60608 -2.89502,3.59703 -3.52881,5.78295l-32.25877,111.26159c-1.32667,4.5617 0.02148,9.44668 3.52344,12.79742c3.50732,3.34559 8.6206,4.63354 13.39549,3.37124l116.4614,-30.82361c2.2881,-0.60549 4.37207,-1.76516 6.05323,-3.37126l245.30316,-234.36103c24.12695,-23.10103 24.12695,-60.49782 0,-83.59885l-16.13476,-15.41436zm-302.85444,242.89436l200.76607,-191.80732l64.74853,61.85761l-200.77145,191.80731l-64.74315,-61.8576zm-12.93359,24.79435l51.729,49.42451l-71.55371,18.93956l19.8247,-68.36407zm312.47943,-187.25075l-14.58252,13.93143l-64.75389,-61.86273l14.58788,-13.93143c13.42236,-12.82308 35.18604,-12.82308 48.6084,0l16.14013,15.41438c13.40087,12.83846 13.40087,33.61502 0,46.44836zm0,0"/>
		</symbol>
		
		<symbol id="menu" viewBox="0 0 512 512">
			<circle r="64" cy="256" cx="256"/>
			<circle r="64" cy="448" cx="256"/>
			<circle r="64" cy="64" cx="256"/>
		</symbol>
		
		<symbol id="arrow-dropdown" viewBox="0 0 512 512">
			<g id="arrow-drop-down">
				<polygon points="79.00000762939453,118.75 263.5,349.25 448,118.75 "/>
			</g>
		</symbol>
		
		<symbol id="more" viewBox="0 0 512 512">
			<path d="m73.143,182.857c-40.331,0 -73.143,32.813 -73.143,73.143c0,40.33 32.812,73.143 73.143,73.143c40.33,0 73.143,-32.813 73.143,-73.143c0,-40.33 -32.813,-73.143 -73.143,-73.143zm0,128c-30.25,0 -54.857,-24.607 -54.857,-54.857s24.607,-54.857 54.857,-54.857c30.25,0 54.857,24.607 54.857,54.857s-24.607,54.857 -54.857,54.857z"/>
			<path d="m256,182.857c-40.331,0 -73.143,32.813 -73.143,73.143c0,40.33 32.812,73.143 73.143,73.143c40.33,0 73.143,-32.813 73.143,-73.143c0,-40.33 -32.813,-73.143 -73.143,-73.143zm0,128c-30.25,0 -54.857,-24.607 -54.857,-54.857s24.607,-54.857 54.857,-54.857c30.25,0 54.857,24.607 54.857,54.857s-24.607,54.857 -54.857,54.857z"/>
			<path d="m438.857,182.857c-40.331,0 -73.143,32.813 -73.143,73.143c0,40.33 32.812,73.143 73.143,73.143c40.33,0 73.143,-32.813 73.143,-73.143c0,-40.33 -32.813,-73.143 -73.143,-73.143zm0,128c-30.25,0 -54.857,-24.607 -54.857,-54.857s24.607,-54.857 54.857,-54.857c30.25,0 54.857,24.607 54.857,54.857s-24.607,54.857 -54.857,54.857z"/>
		</symbol>
		
		<symbol id="mail" viewBox="0 0 512 512">
			<path d="m448.0039,57.75l-385.60222,0c-34.42123,0 -62.40167,27.5087 -62.40167,61.34959l0,259.1008c0,33.84089 27.98045,61.34959 62.40167,61.34959l385.49664,0c34.42123,0 62.40167,-27.5087 62.40167,-61.34959l0,-258.997c0.10559,-33.84089 -27.87486,-61.4534 -62.29609,-61.4534l0,0.00001zm33.8933,320.45039c0,18.37373 -15.20447,33.32186 -33.8933,33.32186l-385.60222,0c-18.68883,0 -33.8933,-14.94812 -33.8933,-33.32186l0,-258.997c0,-18.37373 15.20447,-33.32186 33.8933,-33.32186l385.49664,0c18.68883,0 33.8933,14.94812 33.8933,33.32186l0,258.997l0.10559,0l-0.00001,0z"/>
			<path d="m321.82792,245.43199l124.80335,-110.0348c5.80726,-5.19032 6.3352,-14.01387 1.05587,-19.82702c-5.27933,-5.70935 -14.25419,-6.22838 -20.16704,-1.03806l-172.10614,151.86878l-33.57654,-29.48102c-0.10559,-0.10381 -0.21117,-0.20761 -0.21117,-0.31142c-0.73911,-0.72664 -1.47821,-1.34948 -2.3229,-1.97232l-136.62905,-120.20783c-5.91285,-5.19032 -14.88771,-4.67129 -20.16704,1.14187c-5.27933,5.81316 -4.7514,14.6367 1.16145,19.82702l126.28156,110.96905l-125.75363,115.74415c-5.70168,5.29413 -6.01844,14.11767 -0.63352,19.82702c2.85084,2.90658 6.65196,4.46368 10.45307,4.46368c3.48436,0 6.96871,-1.24568 9.71397,-3.73703l127.65419,-117.40505l34.6324,30.41528c2.74525,2.38755 6.12402,3.52942 9.50279,3.52942c3.37877,0 6.86313,-1.24568 9.50279,-3.63322l35.58268,-31.34954l126.91508,118.54692c2.74525,2.59516 6.3352,3.84084 9.81955,3.84084c3.80112,0 7.49665,-1.45329 10.34749,-4.35987c5.38492,-5.60555 5.17374,-14.5329 -0.52793,-19.82702l-125.33128,-116.98983z"/>
		</symbol>

		<symbol id="card-v2" viewBox="0 0 32 32">
			<path d="m17.871,20.045l-0.671,0c-0.348,0 -0.631,-0.282 -0.631,-0.631c0,-0.13 0.052,-0.253 0.145,-0.343c0.39,-0.381 0.72,-0.891 0.956,-1.442c0.049,0.036 0.1,0.062 0.159,0.062c0.377,0 0.819,-0.834 0.819,-1.401c0,-0.568 -0.051,-1.028 -0.428,-1.028c-0.046,0 -0.093,0.007 -0.141,0.021c-0.027,-1.539 -0.416,-3.461 -2.767,-3.461c-2.453,0 -2.739,1.917 -2.767,3.455c-0.034,-0.007 -0.069,-0.014 -0.101,-0.014c-0.377,0 -0.429,0.46 -0.429,1.028c0,0.567 0.443,1.401 0.82,1.401c0.047,0 0.09,-0.014 0.13,-0.037c0.237,0.541 0.561,1.043 0.946,1.418c0.093,0.09 0.145,0.214 0.145,0.343c0,0.349 -0.282,0.631 -0.631,0.631l-0.671,0c-1.436,0 -2.6,1.164 -2.6,2.601l0,0.721c0,0.453 0.368,0.82 0.821,0.82l8.676,0c0.453,0 0.82,-0.367 0.82,-0.82l0,-0.721c0,-1.439 -1.164,-2.603 -2.6,-2.603z"/>
			<path d="m25.654,12.912l-7.275,0c0.21,0.465 0.36,1.037 0.424,1.744c0.155,0.096 0.271,0.251 0.366,0.437l6.485,0c0.337,0 0.609,-0.272 0.609,-0.608l0,-0.965c0.001,-0.336 -0.272,-0.608 -0.609,-0.608z"/>
			<path d="m25.654,16.888l-6.336,0c-0.172,0.649 -0.596,1.329 -1.182,1.512c-0.018,0.031 -0.039,0.06 -0.056,0.092l0,0.578l7.573,0c0.337,0 0.609,-0.272 0.609,-0.608l0,-0.965c0.002,-0.337 -0.271,-0.609 -0.608,-0.609z"/>
			<path d="m25.654,20.862l-4.946,0c0.326,0.518 0.519,1.128 0.519,1.783l0,0.399l4.428,0c0.337,0 0.609,-0.272 0.609,-0.608l0,-0.965c0,-0.336 -0.273,-0.609 -0.61,-0.609z"/>
			<path d="m28.27,6.846l-20.124,0c-2.064,0 -3.737,1.673 -3.737,3.737l0,14.841c0,2.063 1.673,3.737 3.737,3.737l20.124,0c2.063,0 3.736,-1.674 3.736,-3.737l0,-14.841c0.001,-2.064 -1.673,-3.737 -3.736,-3.737zm1.972,18.578c0,1.089 -0.885,1.974 -1.973,1.974l-20.123,0c-1.088,0 -1.973,-0.885 -1.973,-1.974l0,-14.841c0,-1.088 0.885,-1.973 1.973,-1.973l20.124,0c1.088,0 1.973,0.885 1.973,1.973l0,14.841l-0.001,0z"/>
			<path d="m3.737,4.61l13.112,0l6.374,0l0.637,0c0.822,0 1.527,0.506 1.822,1.221l1.84,0c-0.349,-1.704 -1.855,-2.986 -3.662,-2.986l-1.493,0l-4.987,0l-13.643,0c-2.064,0 -3.737,1.673 -3.737,3.737l0,14.841c0,1.946 1.493,3.527 3.394,3.703l0,-1.766c-0.924,-0.163 -1.629,-0.967 -1.629,-1.938l0,-14.84c0,-1.087 0.885,-1.972 1.972,-1.972z"/>
		</symbol>

		<symbol id="humanRessource" viewBox="0 0 512 512">
			<path d="m499.90234,236.06641c-7.66406,-7.07032 -18.08984,-11.4375 -28.60546,-11.98438c-11.94141,-0.61719 -23.12891,3.64063 -31.46094,11.97656l-56.92969,56.33204c-1.125,-1.94922 -2.41016,-3.78907 -3.85156,-5.4961c-7.00391,-8.3164 -17.2461,-12.89453 -28.83594,-12.89453l-79.69531,0c-15.02735,0 -29.6875,-1.94922 -43.57031,-5.78906c-36.19532,-10.01172 -70.77344,-2.69922 -100.00391,21.16015c-11.88672,9.70313 -20.55859,20.25782 -26.04297,27.95313l-14.28906,-13.86719c-1.87891,-1.82422 -4.42578,-2.85937 -7.04688,-2.85937c-0.02343,0 -0.04297,0 -0.0664,0c-2.71485,0.01953 -5.33985,1.14843 -7.22266,3.10156l-69.46484,72.11328c-1.85938,1.92969 -2.8711,4.52344 -2.8125,7.20313c0.05859,2.68359 1.17968,5.23046 3.12109,7.07812l117.48828,111.87109c1.94922,1.85547 4.44922,2.78125 6.94531,2.78125c2.6211,0 5.24219,-1.01953 7.21485,-3.04297l68.8164,-70.60156c1.87891,-1.92969 2.92188,-4.5664 2.8711,-7.26172c-0.05078,-2.65625 -1.16406,-5.21875 -3.07031,-7.07031l-5.99219,-5.8125l13.71484,-1.54297c8.29688,-0.96484 16.73438,-1.45312 25.08594,-1.45312l121.25391,0c19.70312,0 36.4375,-4.3086 49.74218,-12.8086c0.10938,-0.07031 0.21875,-0.14453 0.32813,-0.21875c4.76562,-3.3125 9.08984,-7.23828 12.84765,-11.66406l81.71094,-96.1289c13.98438,-16.44922 13.10938,-36.97657 -2.17969,-51.07422zm-372.60546,244.44922l-102.94532,-98.02344l55.45703,-57.57422l102.34375,99.31641l-54.85546,56.28125zm359.4375,-206.42188l-81.71094,96.13281c-2.59375,3.05078 -5.56641,5.76172 -8.84375,8.0586c-9.98828,6.32422 -23.01563,9.53515 -38.72656,9.53515l-121.25782,0c-9.12109,0 -18.34375,0.53516 -27.37109,1.58594l-30.14844,3.38281l-63.125,-61.25781c4.38672,-6.50391 12.45313,-17.01562 24.13672,-26.55469c24.28906,-19.82812 51.84375,-25.66797 81.89453,-17.35156c15.63281,4.32422 32.09766,6.51953 48.94141,6.51953l79.69531,0c14.3125,0 18.13281,12.39844 18.13281,19.72266c0,5.35156 -1.71875,10.44531 -4.71484,13.97656c-3.25,3.82422 -7.87109,5.76172 -13.73438,5.76172l-69.375,0c-5.5625,0 -10.07031,4.51172 -10.07031,10.07422s4.50781,10.07031 10.07031,10.07031l69.375,0c11.71094,0 22.03907,-4.57031 29.08594,-12.86719c5.86328,-6.89843 9.20703,-15.96875 9.48828,-25.66406l65.56641,-64.87891c9.37109,-9.37109 24.01172,-7.01953 32.20312,0.53516c4.23438,3.90625 9.92969,12.11328 0.48829,23.21875zm0,0"/>
			<path d="m249.11719,340.99609c-1.26953,-5.41796 -6.6875,-8.77343 -12.10547,-7.50781c-5.41406,1.26953 -8.77734,6.6875 -7.50391,12.10547l0.09375,0.41016c1.08985,4.64062 5.22657,7.77343 9.79688,7.77343c0.76172,0 1.53515,-0.08593 2.30859,-0.26562c5.41797,-1.26953 8.77735,-6.69141 7.50781,-12.10547l-0.09765,-0.41016zm0,0"/>
			<path d="m68.07813,213l98.14062,0c5.34375,0 10.28906,-1.73437 14.3125,-4.66406c4.02344,2.92969 8.96875,4.66406 14.3125,4.66406l98.14453,0c5.34375,0 10.28906,-1.73437 14.3125,-4.66406c4.02344,2.92969 8.96875,4.66406 14.3125,4.66406l98.14063,0c13.44531,0 24.38281,-10.94141 24.38281,-24.38672l0,-45.76562c0,-20.55469 -11.50391,-38.41016 -28.72266,-47.21875c8.34375,-10.0625 13.36719,-22.96875 13.36719,-37.03125c0,-32.03516 -26.0625,-58.09766 -58.09766,-58.09766s-58.09765,26.0625 -58.09765,58.09766c0,14.0625 5.02343,26.97265 13.36718,37.03125c-7.4414,3.8125 -13.8125,9.3164 -18.65234,15.99218c-4.83984,-6.67968 -11.21094,-12.18359 -18.65625,-15.99218c8.34375,-10.0586 13.36719,-22.96875 13.36719,-37.03125c0,-32.03516 -26.0625,-58.09766 -58.09766,-58.09766c-32.03515,0 -58.09765,26.0625 -58.09765,58.09766c0,14.0625 5.02734,26.97265 13.37109,37.03515c-7.44531,3.8086 -13.81641,9.3125 -18.65625,15.99219c-4.83984,-6.67969 -11.21094,-12.18359 -18.65625,-15.99609c8.34375,-10.0586 13.36719,-22.96875 13.36719,-37.02735c0,-32.03906 -26.0625,-58.10156 -58.09766,-58.10156c-32.03125,0 -58.09375,26.0625 -58.09375,58.10156c0,14.0586 5.02344,26.96875 13.36719,37.03125c-17.21875,8.8086 -28.72656,26.66797 -28.72656,47.21875l0,45.76172c0,13.44531 10.9414,24.38672 24.38671,24.38672l0.00001,0zm302.60937,-192.35547c20.92578,0 37.95313,17.02344 37.95313,37.95313c0,20.92578 -17.02735,37.95312 -37.95313,37.95312c-20.92969,0 -37.95312,-17.02344 -37.95312,-37.95312c-0.00391,-20.92969 17.02343,-37.95313 37.95312,-37.95313zm-26.16797,89.80078c7.8711,3.98828 16.75781,6.25 26.16406,6.25c9.41016,0 18.29688,-2.26172 26.16407,-6.25c15.65234,2.72657 27.14843,16.21485 27.14843,32.40235l0,45.76562c0,2.33985 -1.90234,4.24219 -4.24218,4.24219l-98.14063,0c-2.33594,0 -4.23828,-1.90234 -4.23828,-4.24219l0,-45.76562c-0.00391,-16.1836 11.49609,-29.67578 27.14453,-32.40235zm-100.60156,-89.80078c20.92578,0 37.95312,17.02344 37.95312,37.95313c0,20.92578 -17.02734,37.95312 -37.95312,37.95312c-20.92969,0 -37.95313,-17.02344 -37.95313,-37.95312c0,-20.92969 17.02344,-37.95313 37.95313,-37.95313zm-26.16406,89.80078c7.86718,3.98828 16.7539,6.25 26.16406,6.25c9.41016,0 18.29297,-2.26172 26.16406,-6.25c15.64844,2.72657 27.14844,16.21485 27.14844,32.40235l0,45.76562c0,2.33985 -1.90234,4.24219 -4.24219,4.24219l-98.14062,0c-2.33985,0 -4.24219,-1.90234 -4.24219,-4.24219l0,-45.76562c0,-16.1836 11.5,-29.67578 27.14844,-32.40235zm-100.60547,-89.80078c20.92578,0 37.95312,17.02344 37.95312,37.95313c0,20.92578 -17.02734,37.95312 -37.95312,37.95312c-20.92578,0 -37.95313,-17.02734 -37.95313,-37.95312c0,-20.92969 17.02735,-37.95313 37.95313,-37.95313zm-53.3125,122.20313c0,-16.1836 11.5,-29.67578 27.14844,-32.40235c7.87109,3.98828 16.7539,6.25 26.16406,6.25c9.41015,0 18.29297,-2.26172 26.16406,-6.25c15.65234,2.72657 27.14844,16.21485 27.14844,32.40235l0,45.76562c0,2.33985 -1.90235,4.24219 -4.24219,4.24219l-98.14062,0c-2.33985,0 -4.24219,-1.90234 -4.24219,-4.24219l0,-45.76562zm0,0"/>
 		</symbol>
 		
 		<symbol id="holiday" viewBox="0 0 512 512">
			<path id="svg_3" d="m85.636,67.25c-26.754,0 -48.522,21.767 -48.522,48.522c0,26.756 21.767,48.522 48.522,48.522c26.756,0 48.523,-21.767 48.523,-48.522c0,-26.755 -21.767,-48.522 -48.523,-48.522zm0.001,81.993c-18.456,0 -33.472,-15.014 -33.472,-33.471c0,-18.457 15.015,-33.471 33.472,-33.471s33.472,15.015 33.472,33.471c0,18.456 -15.016,33.471 -33.472,33.471z"/>
			<path id="svg_6" d="m85.637,30.135c-4.157,0 -7.525,3.369 -7.525,7.525l0,15.138c0,4.156 3.368,7.525 7.525,7.525s7.525,-3.369 7.525,-7.525l0,-15.138c0,-4.156 -3.368,-7.525 -7.525,-7.525z"/>
			<path id="svg_9" d="m146.193,55.217c-2.94,-2.938 -7.704,-2.939 -10.644,0l-10.704,10.704c-2.939,2.939 -2.939,7.704 0,10.642c1.47,1.47 3.395,2.204 5.322,2.204c1.925,0 3.852,-0.734 5.322,-2.203l10.704,-10.704c2.939,-2.939 2.939,-7.704 0,-10.643z"/>
			<path id="svg_12" d="m163.749,108.247l-15.137,0c-4.157,0 -7.525,3.369 -7.525,7.525c0,4.156 3.368,7.525 7.525,7.525l15.137,0c4.157,0 7.525,-3.369 7.525,-7.525c0,-4.156 -3.368,-7.525 -7.525,-7.525z"/>
			<path id="svg_15" d="m146.193,165.684l-10.704,-10.703c-2.941,-2.939 -7.705,-2.939 -10.644,0s-2.939,7.704 0,10.642l10.704,10.704c1.47,1.469 3.396,2.204 5.322,2.204s3.852,-0.734 5.322,-2.204c2.939,-2.939 2.939,-7.704 0,-10.643z"/>
			<path id="svg_18" d="m85.637,171.222c-4.157,0 -7.525,3.369 -7.525,7.525l0,15.138c0,4.156 3.368,7.525 7.525,7.525s7.525,-3.369 7.525,-7.525l0,-15.138c0,-4.156 -3.368,-7.525 -7.525,-7.525z"/>
			<path id="svg_21" d="m46.43,154.981c-2.939,-2.939 -7.703,-2.939 -10.643,0l-10.704,10.703c-2.94,2.939 -2.94,7.704 -0.001,10.643c1.47,1.469 3.395,2.204 5.322,2.204c1.925,0 3.852,-0.734 5.322,-2.204l10.704,-10.704c2.938,-2.939 2.938,-7.704 0,-10.642z"/>
			<path id="svg_24" d="m22.662,108.247l-15.137,0c-4.157,0 -7.525,3.369 -7.525,7.525c0,4.156 3.368,7.525 7.525,7.525l15.137,0c4.157,0 7.525,-3.369 7.525,-7.525c0,-4.156 -3.368,-7.525 -7.525,-7.525z"/>
			<path id="svg_27" d="m46.43,65.921l-10.705,-10.704c-2.94,-2.939 -7.704,-2.939 -10.643,0c-2.939,2.939 -2.939,7.704 0,10.643l10.704,10.704c1.47,1.469 3.396,2.203 5.322,2.203c1.925,0 3.852,-0.734 5.322,-2.204c2.938,-2.939 2.938,-7.704 0,-10.642z"/>
			<path id="svg_30" d="m508.356,457.18c-13.116,-8.896 -28.324,-12.925 -43.34,-12.113c-13.861,-19.093 -40.008,-35.461 -76.032,-47.525c-22.361,-7.488 -47.316,-12.893 -73.849,-16.102l53.915,-135.271c8.135,5.875 15.235,12.853 21.038,20.747c1.918,2.61 4.877,4.087 8.141,3.292c17.807,-3.229 36.69,-1.16 54.628,5.989c18.073,7.203 33.291,18.807 44.008,33.557c1.437,1.977 3.714,3.101 6.087,3.101c0.602,0 1.21,-0.072 1.812,-0.222c2.974,-0.737 5.204,-3.205 5.638,-6.238c0.284,-1.991 6.799,-49.36 -8.723,-100.965c-1.196,-3.98 -5.402,-6.235 -9.373,-5.039c-3.98,1.197 -6.236,5.394 -5.038,9.373c9.06,30.124 10.049,59.251 9.493,77.019c-10.74,-10.394 -23.739,-18.752 -38.332,-24.568c-16.59,-6.612 -33.947,-9.423 -50.843,-8.3c0.128,-0.389 0.244,-0.769 0.37,-1.156c5.88,-17.964 10.265,-36.477 12.422,-55.27c1.973,-17.197 2.157,-34.568 -0.008,-51.756c-1.254,-9.954 -3.388,-19.799 -6.45,-29.355c-0.022,-0.069 -0.044,-0.143 -0.067,-0.212c27.002,14.629 47.758,36.185 61.846,64.284c1.862,3.715 6.384,5.216 10.099,3.354c3.715,-1.862 5.216,-6.384 3.354,-10.1c-18.674,-37.246 -47.974,-64.037 -87.111,-79.638c-53.828,-21.451 -109.852,-14.395 -162.006,20.406c-38.932,25.977 -61.729,57.839 -62.681,59.182c-1.771,2.5 -1.848,5.824 -0.197,8.404c1.651,2.58 4.697,3.903 7.714,3.342c17.927,-3.333 36.955,-1.288 55.027,5.915c17.81,7.099 32.849,18.471 43.541,32.917c2.08,2.81 5.114,4.538 8.675,3.48c9.557,-1.694 19.418,-1.862 29.274,-0.544l-60.123,150.855c-1.517,-0.013 -3.029,-0.04 -4.551,-0.04c-34.684,0 -67.831,3.455 -98.52,10.269c-4.057,0.901 -6.616,4.92 -5.714,8.978c0.901,4.057 4.913,6.617 8.977,5.715c29.202,-6.484 62.142,-9.911 95.257,-9.911c15.696,0 31.402,0.746 47.022,2.298c0.056,0.005 0.111,0.004 0.168,0.008c29.047,2.88 56.27,8.423 80.299,16.471c28.686,9.607 50.833,22.267 63.831,36.298c-6.558,2.037 -12.901,5.057 -18.818,9.069c-18.905,12.821 -43.336,12.821 -62.242,0c-24.039,-16.303 -55.103,-16.302 -79.139,0c-18.905,12.821 -43.336,12.821 -62.242,0c-24.038,-16.303 -55.102,-16.302 -79.139,0c-18.905,12.821 -43.336,12.821 -62.242,0c-5.916,-4.012 -12.259,-7.033 -18.817,-9.069c12.981,-14.011 35.088,-26.657 63.717,-36.259c3.94,-1.321 6.063,-5.587 4.742,-9.528c-1.321,-3.94 -5.585,-6.064 -9.527,-4.742c-35.961,12.06 -62.068,28.415 -75.913,47.485c-15.017,-0.812 -30.224,3.219 -43.34,12.113c-3.44,2.333 -4.337,7.012 -2.004,10.452c2.332,3.44 7.008,4.338 10.452,2.005c11.17,-7.575 24.27,-10.672 37.019,-9.295c0.458,0.099 0.92,0.162 1.384,0.173c8.348,1.116 16.51,4.151 23.841,9.123c24.036,16.301 55.099,16.303 79.138,0c18.907,-12.822 43.339,-12.821 62.243,0c24.037,16.301 55.1,16.303 79.138,0c18.906,-12.822 43.338,-12.821 62.243,0c12.019,8.151 25.794,12.227 39.57,12.227c13.775,0 27.55,-4.076 39.57,-12.227c7.314,-4.96 15.456,-7.993 23.785,-9.115c0.493,-0.009 0.984,-0.076 1.472,-0.184c12.739,-1.368 25.826,1.729 36.986,9.298c3.44,2.333 8.12,1.436 10.452,-2.005c2.329,-3.437 1.432,-8.117 -2.007,-10.45zm-206.031,-245.777c0.08,-0.17 0.163,-0.338 0.244,-0.508c7.01,-14.674 15.187,-28.858 24.726,-42.04c2.332,-3.222 1.664,-8.085 -1.684,-10.508c-3.275,-2.371 -8.144,-1.584 -10.509,1.685c-7.659,10.583 -14.464,21.784 -20.571,33.329c-2.206,4.172 -4.447,8.394 -6.339,12.721c-0.033,0.07 -0.068,0.14 -0.101,0.21c-11.496,-12.441 -26.025,-22.34 -42.62,-28.952c-14.597,-5.818 -29.789,-8.691 -44.735,-8.535c10.047,-11.299 26.551,-27.793 48.035,-42.063c21.302,-14.15 43.29,-23.387 65.35,-27.454c21.343,-3.934 42.879,-3.011 64.249,2.73c-0.086,0.047 -0.178,0.099 -0.264,0.146c-11.561,6.345 -22.28,14.174 -32.012,23.063c-3.796,3.467 -7.499,7.031 -11.047,10.75c-2.868,3.008 -2.755,7.772 0.253,10.64c3.008,2.868 7.771,2.755 10.64,-0.253c9.646,-10.118 20.538,-19.371 32.428,-26.852c5.48,-3.449 11.2,-6.565 17.173,-9.077c1.569,3.559 3.61,8.828 5.527,15.729c9.074,32.689 6.622,67.965 -1.332,100.608c-1.711,7.02 -3.688,13.979 -5.93,20.847c-0.023,0.071 -0.048,0.144 -0.071,0.216c-10.24,-10.834 -22.815,-19.68 -37.052,-26.047c-0.195,-0.087 -0.39,-0.174 -0.585,-0.26c-16.838,-7.432 -35.368,-11.141 -53.773,-10.125zm-2.749,168.417c-3.489,-0.302 -7.002,-0.56 -10.535,-0.788c-3.905,-0.268 -7.817,-0.465 -11.728,-0.624l59.02,-148.079c3.572,1.023 7.088,2.24 10.531,3.633c0.559,0.227 9.182,4.177 9.166,4.217l-56.454,141.641z"/>
 		</symbol>
 		
 		
		<symbol id="card-add" viewBox="0 0 32 32">
			<path d="m8.779,16.363l-0.724,0c-1.548,0 -2.803,1.255 -2.803,2.803l0,0.777c0,0.488 0.396,0.885 0.885,0.885l9.353,0c0.489,0 0.885,-0.396 0.885,-0.885l0,-0.777c0,-1.548 -1.255,-2.803 -2.803,-2.803l-0.724,0c-0.376,0 -0.68,-0.304 -0.68,-0.68c0,-0.14 0.056,-0.273 0.156,-0.37c0.421,-0.41 0.775,-0.96 1.031,-1.554c0.052,0.039 0.108,0.066 0.171,0.066c0.407,0 0.884,-0.898 0.884,-1.51c0,-0.612 -0.055,-1.108 -0.462,-1.108c-0.048,0 -0.099,0.008 -0.151,0.021c-0.029,-1.66 -0.448,-3.731 -2.982,-3.731c-2.644,0 -2.953,2.067 -2.982,3.725c-0.038,-0.007 -0.076,-0.015 -0.11,-0.015c-0.407,0 -0.463,0.496 -0.463,1.108c0,0.612 0.477,1.51 0.884,1.51c0.05,0 0.097,-0.014 0.14,-0.039c0.255,0.583 0.605,1.123 1.019,1.527c0.1,0.097 0.156,0.231 0.156,0.37c0,0.376 -0.304,0.68 -0.68,0.68z"/>
			<path d="m22.621,9.329c0,-0.362 -0.295,-0.656 -0.656,-0.656l-7.844,0c0.226,0.501 0.388,1.117 0.455,1.88c0.168,0.103 0.293,0.27 0.396,0.472l6.992,0c0.362,0 0.655,-0.294 0.655,-0.656l0,-1.04l0.002,0z"/>
			<path d="m22.545,14.947c0.045,-0.089 0.076,-0.185 0.076,-0.291l0,-1.04c0,-0.362 -0.295,-0.656 -0.656,-0.656l-6.832,0c-0.185,0.701 -0.643,1.433 -1.274,1.63c-0.019,0.035 -0.041,0.065 -0.06,0.099l0,0.623l7.927,0c0.264,-0.138 0.538,-0.258 0.819,-0.365z"/>
			<path d="m17.9,19.595c0.33,-0.865 0.801,-1.658 1.392,-2.352l-2.66,0c0.351,0.557 0.558,1.215 0.558,1.921l0,0.431l0.71,0z"/>
			<path d="m4.588,25.036c-1.523,0 -2.762,-1.677 -2.762,-3.735l0,-13.079c0,-2.06 1.239,-3.736 2.762,-3.736l19.927,0c1.522,0 2.763,1.676 2.763,3.736l0,6.409c0.642,0.151 1.254,0.378 1.826,0.672l0,-7.081c0,-3.067 -2.059,-5.562 -4.588,-5.562l-19.928,0c-2.53,0 -4.588,2.495 -4.588,5.562l0,13.078c0,3.066 2.059,5.562 4.588,5.562l14.085,0c-0.368,-0.563 -0.665,-1.177 -0.884,-1.827l-13.201,0.001l0,0z"/>
			<path d="m25.423,16.428c-3.499,0 -6.336,2.837 -6.336,6.335c0,3.5 2.837,6.336 6.336,6.336s6.336,-2.836 6.336,-6.336c0,-3.498 -2.836,-6.335 -6.336,-6.335zm3.556,6.63c0,0.291 -0.236,0.525 -0.525,0.525l-2.211,0l0,2.21c0,0.291 -0.235,0.526 -0.525,0.526l-0.588,0c-0.291,0 -0.526,-0.236 -0.526,-0.526l0,-2.21l-2.21,0c-0.291,0 -0.526,-0.236 -0.526,-0.525l0,-0.588c0,-0.291 0.236,-0.525 0.526,-0.525l2.21,0l0,-2.211c0,-0.29 0.236,-0.525 0.526,-0.525l0.587,0c0.291,0 0.525,0.236 0.525,0.525l0,2.211l2.211,0c0.291,0 0.525,0.236 0.525,0.525l0,0.588l0.001,0z"/>
		</symbol>
  
		<symbol id="card" viewBox="0 0 512 512">
			<path d="m467.74609,82l-423.49609,0c-24.39844,0 -44.25,19.85156 -44.25,44.25391l0,255.1914c0,24.40235 19.85156,44.25391 44.25,44.25391l423.49609,0c24.40235,0 44.25391,-19.85156 44.25391,-44.25391l0,-255.1914c0,-24.40235 -19.85156,-44.25391 -44.25391,-44.25391zm29.04688,299.44531c0,16.01563 -13.03125,29.04688 -29.04688,29.04688l-423.49609,0c-16.01172,0 -29.04297,-13.03125 -29.04297,-29.04688l0,-255.1914c0,-16.01563 13.03125,-29.04688 29.04297,-29.04688l423.49609,0c16.01563,0 29.04688,13.03125 29.04688,29.04688l0,255.1914zm0,0"/>
			<path d="m227.61328,142.83203l-176.41015,0c-4.19922,0 -7.60547,3.40235 -7.60547,7.60547l0,18.24609c0,4.19922 3.40625,7.60157 7.60547,7.60157s7.60546,-3.40235 7.60546,-7.60157l0,-10.64453l161.20313,0l0,185.53907l-161.20313,0l0,-144.47657c0,-4.19922 -3.40625,-7.60547 -7.60546,-7.60547s-7.60547,3.40625 -7.60547,7.60547l0,152.07813c0,4.19922 3.40625,7.60547 7.60547,7.60547l176.41015,0c4.19922,0 7.60547,-3.40625 7.60547,-7.60547l0,-200.74219c0,-4.20312 -3.40625,-7.60547 -7.60547,-7.60547zm0,0"/>
			<path d="m462.83203,160.46484l-190.60547,0c-4.19922,0 -7.60547,3.40625 -7.60547,7.60547c0,4.19922 3.40625,7.60157 7.60547,7.60157l190.60547,0c4.19922,0 7.60156,-3.40235 7.60156,-7.60157c0,-4.19922 -3.40234,-7.60547 -7.60156,-7.60547zm0,0"/>
			<path d="m462.83203,238.78516l-190.60547,0c-4.19922,0 -7.60547,3.40234 -7.60547,7.60156s3.40625,7.60547 7.60547,7.60547l190.60547,0c4.19922,0 7.60156,-3.40625 7.60156,-7.60547s-3.40234,-7.60156 -7.60156,-7.60156zm0,0"/>
			<path d="m375.64063,325.94531l-103.41407,0c-4.19922,0 -7.60547,3.40235 -7.60547,7.60157s3.40625,7.60546 7.60547,7.60546l103.41407,0c4.19921,0 7.60156,-3.40625 7.60156,-7.60546s-3.40235,-7.60157 -7.60156,-7.60157zm0,0"/>
			<path d="m86.17969,326.84766c0,4.19922 3.40625,7.60156 7.60547,7.60156c4.19922,0 7.60547,-3.40234 7.60547,-7.60156c0,-20.96485 17.05468,-38.01953 38.01953,-38.01953s38.01953,17.05468 38.01953,38.01953c0,4.19922 3.40234,7.60156 7.60156,7.60156s7.60547,-3.40234 7.60547,-7.60156c0,-19.34375 -10.37109,-36.30469 -25.84375,-45.625c15.47266,-9.32032 25.84375,-26.28125 25.84375,-45.625c0,-29.34766 -23.87891,-53.22657 -53.22656,-53.22657c-29.35157,0 -53.23047,23.87891 -53.23047,53.22657c0,19.34375 10.375,36.30468 25.84765,45.625c-15.47265,9.32031 -25.84765,26.28125 -25.84765,45.625zm15.21094,-91.25c0,-20.96485 17.05468,-38.01953 38.01953,-38.01953s38.01953,17.05468 38.01953,38.01953s-17.05469,38.01953 -38.01953,38.01953s-38.01953,-17.05469 -38.01953,-38.01953zm0,0"/>
		</symbol>
  
		<symbol id="supply" viewBox="0 0 512 512">
			<path d="m425.735,360.432c-0.578,-0.009 -1.157,-0.009 -1.735,0l-195.371,0c1.975,-12.359 -2.104,-24.915 -10.965,-33.754l-43.879,-44.102c-11.148,-11.591 -26.535,-18.143 -42.617,-18.145l-123.168,0c-4.418,0 -8,3.582 -8,8l0,144c0,4.418 3.582,8 8,8l67.07,0c11.371,-0.039 22.131,5.147 29.184,14.066l7.586,8.941c13.539,15.911 33.397,25.053 54.289,24.992l257.871,0c30.928,0.479 56.388,-24.204 56.868,-55.132c0.479,-30.926 -24.205,-56.387 -55.133,-56.866zm-0.004,96c-0.577,0.013 -1.154,0.013 -1.731,0l0,0l-257.871,0c-16.192,0.057 -31.588,-7.019 -42.09,-19.344l-7.586,-8.941c-10.098,-12.498 -25.315,-19.748 -41.383,-19.715l-59.07,0l0,-128l115.168,0c11.766,0.005 23.021,4.812 31.16,13.309l43.992,44.219c9.011,9.071 8.963,23.729 -0.107,32.74c-9.045,8.986 -23.652,8.967 -32.674,-0.041l-39.883,-39.883l-11.313,11.312l39.883,39.883c15.286,15.287 40.07,15.289 55.358,0.003c0.838,-0.838 1.637,-1.713 2.396,-2.624c0.789,-0.945 1.531,-1.922 2.219,-2.918l201.801,0c22.091,-0.478 40.387,17.043 40.865,39.135c0.478,22.091 -17.043,40.387 -39.134,40.865z"/>
			<path d="m445.16022,32.432l-212.44444,0c-7.33265,0 -13.27778,5.89538 -13.27778,13.16667l0,210.66667c0,7.27129 5.94512,13.16667 13.27778,13.16667l212.44444,0c7.33265,0 13.27778,-5.89538 13.27778,-13.16667l0,-210.66667c0,-7.27129 -5.94512,-13.16667 -13.27778,-13.16667zm-13.27778,210.66667l-185.88889,0l0,-184.33334l185.88889,0l0,184.33334z"/>
			<path d="m346.90467,87.73529c-4.72191,-3.51056 -11.21308,-3.51056 -15.93665,0l-53.11111,39.5l15.93665,21.06173l31.86501,-23.69835l0,92.16667l26.55556,0l0,-92.16667l31.86501,23.69835l15.93665,-21.06173l-53.11111,-39.5l-0.00001,0z"/>
		</symbol>

		<symbol id="wiki" viewBox="0 0 512 512">
			<path d="m406,211c-21.441,0 -38.432,0 -60,0c-8.284,0 -15,6.716 -15,15s6.716,15 15,15l9.188,0l-39.188,117.566l-39.188,-117.566l9.188,0c8.284,0 15,-6.716 15,-15s-6.716,-15 -15,-15l-60,0c-8.284,0 -15,6.716 -15,15s6.716,15 15,15l9.188,0l-39.188,117.566l-39.188,-117.566l9.188,0c8.284,0 15,-6.716 15,-15s-6.716,-15 -15,-15c-21.523,0 -38.535,0 -60,0c-8.284,0 -15,6.716 -15,15s6.716,15 15,15l19.188,0l56.581,169.743c2.043,6.126 7.774,10.257 14.231,10.257c6.457,0 12.188,-4.131 14.23,-10.257l45.77,-137.309l45.77,137.309c2.042,6.126 7.773,10.257 14.23,10.257c6.457,0 12.188,-4.131 14.23,-10.257l56.582,-169.743l19.188,0c8.284,0 15,-6.716 15,-15s-6.716,-15 -15,-15z"/>
			<path d="m467,0l-422,0c-24.813,0 -45,20.187 -45,45l0,422c0,24.813 20.187,45 45,45l422,0c24.813,0 45,-20.187 45,-45l0,-422c0,-24.813 -20.187,-45 -45,-45zm-437,45c0,-8.271 6.729,-15 15,-15l286,0l0,90l-301,0l0,-75zm452,422c0,8.271 -6.729,15 -15,15l-422,0c-8.271,0 -15,-6.729 -15,-15l0,-317l452,0l0,317zm0,-347l-121,0l0,-90l106,0c8.271,0 15,6.729 15,15l0,75z"/>
		</symbol>

		<symbol id="book" viewBox="0 0 512 512">		
			<path d="m469.333,68.267l-256,0c-4.71,0 -8.533,3.823 -8.533,8.533s3.823,8.533 8.533,8.533l247.467,0l0,384c0,13.636 -11.964,25.6 -25.6,25.6l-358.4,0c-13.636,0 -25.6,-11.964 -25.6,-25.6l0,-391.825c5.487,3.703 11.554,5.879 17.067,6.955l0,384.87c0,4.71 3.823,8.533 8.533,8.533s8.533,-3.823 8.533,-8.533l0,-392.533c0,-4.676 -3.814,-8.482 -8.491,-8.533c-4.284,-0.051 -25.643,-1.51 -25.643,-25.6l0,-8.533c0,-9.412 7.654,-17.067 17.067,-17.067l401.067,0c4.71,0 8.533,-3.823 8.533,-8.533s-3.822,-8.534 -8.533,-8.534l-401.066,0c-18.825,0 -34.134,15.309 -34.134,34.133l0,435.2c0,23.126 19.542,42.667 42.667,42.667l358.4,0c23.125,0 42.667,-19.541 42.667,-42.667l0,-392.533c0,-4.71 -3.823,-8.533 -8.534,-8.533z"/>
			<path d="m460.8,42.667c0,-4.71 -3.823,-8.533 -8.533,-8.533l-273.067,0c-4.71,0 -8.533,3.823 -8.533,8.533l0,81.801l-19.567,-19.568c-3.337,-3.337 -8.73,-3.337 -12.066,0l-19.567,19.567l0,-81.8c0,-4.71 -3.823,-8.533 -8.533,-8.533l-34.134,0c-4.71,0 -8.533,3.823 -8.533,8.533c0,4.71 3.823,8.533 8.533,8.533l25.6,0l0,93.867c0,3.448 2.082,6.562 5.265,7.885c3.191,1.314 6.852,0.589 9.301,-1.852l28.1,-28.1l28.1,28.1c1.63,1.63 3.814,2.5 6.033,2.5c1.101,0 2.21,-0.213 3.268,-0.649c3.183,-1.323 5.265,-4.437 5.265,-7.885l0,-93.866l264.533,0c4.712,0 8.535,-3.823 8.535,-8.533z"/>
			<path d="m214.333,283.933l51.2,0c4.71,0 8.533,-3.823 8.533,-8.533s-3.823,-8.533 -8.533,-8.533l-51.2,0c-4.71,0 -8.533,3.823 -8.533,8.533s3.823,8.533 8.533,8.533z"/>
			<path d="m154.6,224.2l0,136.533c0,4.71 3.823,8.533 8.533,8.533l187.733,0c4.71,0 8.533,-3.823 8.533,-8.533l0,-136.533c0,-4.71 -3.823,-8.533 -8.533,-8.533l-187.733,0c-4.71,0 -8.533,3.823 -8.533,8.533zm17.067,8.533l170.667,0l0,119.467l-170.667,0l0,-119.467z"/>
			<path d="m299.667,301l-85.333,0c-4.71,0 -8.533,3.823 -8.533,8.533c0,4.71 3.823,8.533 8.533,8.533l85.333,0c4.71,0 8.533,-3.823 8.533,-8.533c0,-4.71 -3.823,-8.533 -8.533,-8.533z"/>
		</symbol>
		
		<symbol id="questionnaire" viewBox="0 0 512 512">		
			<path d="m428.53516,46.42577c-5.52344,0 -10,5.59398 -10,12.49615l0,428.08579l-317.53516,0l0,-24.99718c0,-6.89729 -4.47656,-12.49615 -10,-12.49615s-10,5.59886 -10,12.49615l0,37.49333c0,6.90217 4.47656,12.49615 10,12.49615l337.53516,0c5.52343,0 10,-5.59398 10,-12.49615l0,-440.58193c0,-6.90217 -4.47657,-12.49615 -10,-12.49615l0,-0.00001zm0,0"/>
			<path d="m428.53516,35.49661l-83.57813,0l0,-23.43191c0,-6.66386 -4.47656,-12.0647 -10,-12.0647l-150.37891,0c-5.52343,0 -10,5.40083 -10,12.0647l0,23.43191l-83.57812,0c-5.52344,0 -10,5.40083 -10,12.0647l0,425.37009c0,6.66386 4.47656,12.0647 10,12.0647s10,-5.40083 10,-12.0647l0,-413.30539l73.57812,0l0,23.4319c0,6.66386 4.47657,12.0647 10,12.0647l150.37891,0c5.52344,0 10,-5.40083 10,-12.0647l0,-23.4319l73.57813,0l0,24.1341c0,6.65915 4.47656,12.0647 10,12.0647c5.52343,0 10,-5.40555 10,-12.0647l0,-36.19879c0,-6.66386 -4.47657,-12.0647 -10,-12.0647l0,-0.00001zm-103.57813,35.49659l-130.37891,0l0,-46.86381l130.37891,0l0,46.86381zm0,0"/>
			<path d="m199.69531,124.22656l-57.20703,0c-5.52344,0 -10,4.47657 -10,10l0,57.21094c0,5.52344 4.47656,10 10,10l57.20703,0c5.52344,0 10,-4.47656 10,-10l0,-57.21094c0,-5.52343 -4.47656,-10 -10,-10zm-10,57.21094l-37.20703,0l0,-37.21094l37.20703,0l0,37.21094zm0,0"/>
			<path d="m132.48828,303.13281c0,5.52344 4.47656,10 10,10l57.20703,0c5.52344,0 10,-4.47656 10,-10l0,-57.20703c0,-5.52344 -4.47656,-10 -10,-10l-57.20703,0c-5.52344,0 -10,4.47656 -10,10l0,57.20703zm20,-47.20703l37.20703,0l0,37.20703l-37.20703,0l0,-37.20703zm0,0"/>
			<path d="m166.87109,398.23438l-17.3125,-17.3086c-3.90625,-3.90625 -10.23828,-3.90625 -14.14062,0c-3.90625,3.90625 -3.90625,10.23438 0,14.14063l24.38281,24.38281c1.95313,1.95312 4.50781,2.92969 7.07031,2.92969c2.5586,0 5.11719,-0.97657 7.07032,-2.92969l48.76562,-48.76172c3.90235,-3.90625 3.90235,-10.23828 0,-14.14453c-3.90625,-3.90625 -10.23828,-3.90235 -14.14453,0l-41.69141,41.69141zm0,0"/>
			<path d="m252.00781,172.83203l115.8125,0c5.52344,0 10,-4.47656 10,-10c0,-5.52344 -4.47656,-10 -10,-10l-115.8125,0c-5.52343,0 -10,4.47656 -10,10c0,5.52344 4.47657,10 10,10zm0,0"/>
			<path d="m252.00781,291.33594l115.8125,0c5.52344,0 10,-4.47656 10,-10c0,-5.52344 -4.47656,-10 -10,-10l-115.8125,0c-5.52343,0 -10,4.47656 -10,10c0,5.52344 4.47657,10 10,10zm0,0"/>
			<path d="m252.00781,409.83984l115.8125,0c5.52344,0 10,-4.47656 10,-10c0,-5.52343 -4.47656,-10 -10,-10l-115.8125,0c-5.52343,0 -10,4.47657 -10,10c0,5.52344 4.47657,10 10,10zm0,0"/>
		</symbol>
		
		<symbol id="facebook" viewBox="0 0 512 512">		
			<path d="m75,512l167,0l0,-182l-60,0l0,-60l60,0l0,-75c0,-41.35547 33.64453,-75 75,-75l75,0l0,60l-60,0c-16.54297,0 -30,13.45703 -30,30l0,60l87.29297,0l-10,60l-77.29297,0l0,182l135,0c41.35547,0 75,-33.64453 75,-75l0,-362c0,-41.35547 -33.64453,-75 -75,-75l-362,0c-41.35547,0 -75,33.64453 -75,75l0,362c0,41.35547 33.64453,75 75,75zm-45,-437c0,-24.8125 20.1875,-45 45,-45l362,0c24.8125,0 45,20.1875 45,45l0,362c0,24.8125 -20.1875,45 -45,45l-105,0l0,-122l72.70703,0l20,-120l-92.70703,0l0,-30l90,0l0,-120l-105,0c-57.89844,0 -105,47.10156 -105,105l0,45l-60,0l0,120l60,0l0,122l-137,0c-24.8125,0 -45,-20.1875 -45,-45l0,-362zm0,0"/>
		</symbol>

		<symbol id="modus" viewBox="0 0 512 512">		
			<path stroke="#000" d="m258.06679,504.90903c-16.52835,-5.94175 -170.39198,-69.62999 -179.90799,-74.47185c-18.70404,-9.51093 -35.6457,-23.78312 -48.47798,-40.83954c-18.16149,-24.14031 -27.39951,-47.91305 -27.0496,-69.60557l0.21214,-13.12126l1.53396,8.88509c8.38396,48.56148 30.70665,83.34961 68.20312,106.28892c6.83129,4.17908 179.2679,76.61497 191.1309,80.28453c3.97014,1.22945 3.9866,1.19752 1.07035,-2.07449c-2.874,-3.22451 -2.874,-3.31023 0,-2.88778c1.62906,0.23935 3.05268,1.27482 3.16357,2.30077c0.11095,1.02595 0.29261,2.52094 0.40295,3.3222c0.11095,0.80126 4.73795,1.98333 10.28229,2.62682c16.00469,1.85749 18.21331,3.77909 4.43552,3.85945c-9.37519,0.05495 -15.00005,-0.97307 -25.00009,-4.56814l0.00085,0.00085zm58.06531,3.11271c2.66131,-0.69294 11.37105,-2.78233 19.3551,-4.64312c28.04265,-6.5356 59.45522,-25.9757 75.80495,-46.91415c12.6555,-16.20466 18.36388,-28.2275 51.56383,-108.5969c32.06425,-77.61631 41.94663,-102.96739 40.65304,-104.26181c-0.32126,-0.32165 -4.14199,3.9666 -8.49064,9.52925c-8.14926,10.42374 -38.23106,41.23275 -61.40598,62.88924c-28.86928,26.97887 -89.44192,64.40957 -136.83297,84.55245c-26.11263,11.09965 -79.72474,28.84968 -97.49486,32.27622c-4.81994,0.92972 -9.34227,-3.57351 -24.53496,-24.43216c-41.17852,-56.53621 -74.42114,-127.53694 -93.66652,-200.05495l-2.13174,-8.03273l-16.0876,14.64281c-28.06338,25.54219 -57.09847,60.53975 -57.37828,69.15985c-0.08839,2.72719 -0.74189,6.77616 -1.45215,8.99744c-3.07304,9.61045 -1.46081,-17.57785 1.72623,-29.111c3.57006,-12.91977 65.85613,-166.0337 75.23192,-184.93711c16.25768,-32.78239 42.52819,-56.33899 78.68841,-70.55806c10.0043,-3.93449 16.16502,-5.24069 27.41963,-5.81384c7.98406,-0.40658 14.15331,-0.36262 13.71012,0.09769c-0.4438,0.46031 -7.33909,2.0566 -15.32254,3.5472c-44.02296,8.21895 -82.16318,36.27915 -101.35369,74.56344c-4.92821,9.83148 -67.88613,162.25424 -72.25093,174.91757c-1.65771,4.81048 -2.76245,8.99866 -2.4549,9.30639c0.30724,0.30834 3.99636,-3.82202 8.19742,-9.17756c18.77415,-23.93394 65.1124,-67.50519 91.42925,-85.96898c56.28708,-39.48773 114.73462,-67.42581 178.85946,-85.49273c12.86276,-3.62401 24.11311,-7.34278 25.00009,-8.26413c1.08261,-1.12444 1.03115,-1.35059 -0.15667,-0.68794c-0.97312,0.54305 -3.83073,-1.16779 -6.3503,-3.80169c-2.51946,-2.63396 -4.19064,-4.78899 -3.71368,-4.78899c0.47671,0 -6.98125,-7.74637 -16.57407,-17.21395c-9.59282,-9.46758 -17.08492,-17.79155 -16.64966,-18.49676c0.43526,-0.70558 -0.68039,-2.07193 -2.4794,-3.03627c-1.79908,-0.96434 -3.27104,-1.23757 -3.27104,-0.60722c0,0.63042 -1.79219,-0.54011 -3.98258,-2.60123c-2.19045,-2.06106 -3.59926,-4.36867 -3.13065,-5.12804c0.46879,-0.75937 0.08352,-1.47155 -0.8562,-1.58261c-0.93947,-0.11106 -2.37345,-0.29283 -3.18661,-0.4039c-0.81322,-0.11106 -2.0834,-0.80773 -2.82268,-1.54817c-1.28012,-1.28221 -1.48105,-1.91324 -1.94892,-6.12102c-0.14814,-1.33282 -0.78597,-1.32757 -2.40698,0.02015c-1.67192,1.38973 -2.66887,1.2739 -4.12133,-0.479c-1.05377,-1.27171 -7.13792,-3.27983 -13.52053,-4.46251l-11.60453,-2.15026l11.60697,-0.47289c15.21464,-0.61986 17.33486,0.12792 115.81363,40.85725c103.80432,42.93259 104.92601,43.50592 125.92706,64.51948c18.91497,18.92539 30.83771,39.19221 37.74703,64.16534c4.94924,17.88802 4.68534,55.21492 -0.52365,74.07498c-3.669,13.28489 -67.38625,170.24667 -76.18291,187.66027c-14.32644,28.36976 -34.34967,48.00342 -64.38697,63.13347c-16.58565,8.35389 -31.56863,12.55037 -44.12232,12.35682c-8.39676,-0.12944 -9.66963,-0.43778 -5.87859,-1.42478l-0.0061,-0.00085zm-90.19174,-87.31225c36.51805,-10.62218 72.48868,-24.53535 102.63387,-39.70021c39.16376,-19.70082 99.32979,-60.21675 99.56754,-67.04726c0.04877,-1.43223 -2.81384,-12.89535 -6.36311,-25.4732c-19.8434,-70.32605 -50.68599,-133.64879 -92.25222,-189.41262l-12.79936,-17.1712l-6.7496,1.5014c-24.855,5.52912 -68.63595,20.17218 -97.07423,32.4655c-41.25106,17.83429 -97.34856,51.47698 -123.85438,74.27647l-6.1089,5.25553l5.5814,20.19355c18.36205,66.43058 44.11379,122.99426 80.17586,176.08987c6.9398,10.21798 15.87241,22.69019 19.85011,27.71645l7.23241,9.13848l6.94955,-1.54976c3.82213,-0.85236 14.2673,-3.67835 23.2115,-6.27977l-0.00043,-0.00324zm27.28674,-55.53547c-22.77745,-8.39052 -73.36042,-29.70937 -80.66964,-33.99744c-9.25083,-5.43009 -19.65686,-17.24203 -24.72089,-28.06081c-3.79263,-8.10294 -4.29098,-11.13872 -4.29068,-26.13078l0.00037,-16.96239l16.69965,-40.3871c19.8367,-47.9735 19.71538,-47.72744 27.91524,-56.63756c17.21538,-18.70619 42.44529,-26.01966 64.25895,-18.62682c19.38559,6.5704 84.74183,34.51276 91.30733,39.03834c8.69303,5.9906 13.6071,12.36964 19.8495,25.76688c5.85573,12.56808 7.62987,25.41214 5.12596,37.10709c-2.76726,12.92404 -33.37369,86.79936 -40.03367,96.63573c-10.8608,16.0337 -33.36393,27.87092 -52.62821,27.68409c-5.22338,-0.04885 -13.67659,-2.06197 -22.81403,-5.42801l0.00012,-0.00122zm48.00493,-5.3832c11.74657,-5.5055 21.97947,-14.80034 26.87403,-24.40957c4.80939,-9.44193 31.20713,-73.42166 31.25956,-75.76016c0.02438,-1.11064 0.69593,-2.01936 1.49092,-2.01936c0.79505,0 1.28646,-1.27219 1.09205,-2.82709c-0.19447,-1.55489 0.55474,-5.008 1.66454,-7.67371c3.36785,-8.08768 1.32218,-24.68616 -4.60932,-37.40017c-9.26972,-19.86995 -15.63527,-24.49628 -57.38926,-41.71144c-16.8551,-6.94957 -33.91197,-14.01514 -37.9037,-15.70155c-7.07086,-2.98718 -6.80995,-2.61631 10.10367,14.37111c18.75159,18.83319 23.54312,25.25339 37.2124,49.86079c9.77448,17.59555 16.8996,34.59152 21.28574,50.77421c1.56548,5.77537 3.45813,11.05202 4.20594,11.72549c0.74781,0.67377 0.98245,0.71395 0.52122,0.08914c-1.18295,-1.60282 18.8601,-21.54231 20.58225,-20.47625c2.36327,1.46288 -24.30026,28.23055 -38.16339,38.31298c-15.95897,11.60581 -46.16269,26.59055 -68.17264,33.82159l-16.45885,5.40701l12.42628,12.17975c17.95849,17.60166 18.43094,17.85383 31.96183,17.05764c8.41139,-0.49457 14.28315,-1.99316 22.01849,-5.61863l-0.00177,-0.00177zm-60.04716,-10.27781c-6.23996,-6.31213 -11.34544,-12.12785 -11.34544,-12.92404s-0.90728,-1.45903 -2.01616,-1.47356c-2.79384,-0.03663 -16.82583,-20.19416 -27.53363,-39.55306c-9.81593,-17.74637 -16.93556,-34.74783 -21.31012,-50.88778c-1.56548,-5.77537 -3.57067,-11.22787 -4.456,-12.11625c-1.07279,-1.07663 -1.28774,-1.03535 -0.6443,0.12376c1.16429,2.09757 -19.08322,22.61509 -20.32743,20.59897c-1.66777,-2.70277 29.68799,-33.0254 43.42371,-41.99292c17.33242,-11.31579 42.16913,-23.14813 63.17384,-30.09525l16.59845,-5.49054l-14.65136,-13.96446c-8.05782,-7.68042 -16.50396,-14.43033 -18.76927,-15c-6.83433,-1.71804 -23.16334,0.77103 -32.17885,4.90512c-10.77241,4.93955 -21.47959,14.79485 -26.8533,24.71608c-2.30432,4.25455 -9.59038,20.82122 -16.19123,36.81402c-6.60085,15.99341 -13.60588,32.60227 -15.56699,36.90927c-1.96124,4.30688 -3.15894,8.23849 -2.66156,8.73672c0.49744,0.49823 0.06767,1.91568 -0.95538,3.15008c-2.87522,3.4699 -2.36132,24.35706 0.83175,33.80632c3.64047,10.77299 11.48261,21.6919 20.80354,28.96507c4.60798,3.5958 21.20344,11.58383 43.45175,20.91403c19.79768,8.30321 36.56499,15.14959 37.26056,15.21553c0.69556,0.06533 -3.84078,-5.0453 -10.0805,-11.35731l-0.00207,0.00018zm2.58718,-21.73403c26.66554,-7.7079 56.44619,-22.14007 77.65207,-37.63036c11.63806,-8.50104 11.44603,-6.6571 3.30408,-31.71388c-8.17608,-25.16058 -24.68553,-56.32128 -39.74838,-75.02137l-3.15022,-3.91079l-16.51859,5.24484c-30.33661,9.63182 -52.73611,20.65393 -75.44528,37.12175c-11.63501,8.43815 -11.43628,6.54903 -3.33322,31.68946c6.48625,20.12395 20.10797,47.39406 32.07644,64.21419c5.53178,7.77445 10.23961,14.13543 10.46273,14.13543c0.22251,0 6.83677,-1.85932 14.6983,-4.13182l0.00207,0.00256zm104.6151,-58.87166c5.26715,-5.33111 9.21364,-9.69288 8.76984,-9.69288c-0.4438,0 -5.1159,4.36177 -10.38287,9.69288c-5.26715,5.33105 -9.21364,9.69288 -8.76984,9.69288c0.4438,0 5.1159,-4.36183 10.38287,-9.69288zm-183.87045,-25.84748c5.26715,-5.33105 9.21364,-9.69288 8.76984,-9.69288c-0.4438,0 -5.1159,4.36183 -10.38287,9.69288c-5.26715,5.33111 -9.21364,9.69288 -8.76984,9.69288c0.4438,0 5.1159,-4.36177 10.38287,-9.69288zm303.37832,33.51264c10.56332,-10.95738 23.56019,-25.63072 28.8833,-32.60654l9.67755,-12.68409l0,-21.97765c0,-26.37624 -2.46294,-37.28111 -13.72048,-60.74917c-12.12087,-25.26865 -31.78017,-46.38784 -55.63541,-59.76676c-7.9743,-4.47246 -173.3242,-73.94065 -184.30327,-77.42703c-2.55512,-0.81225 -3.24276,-0.41409 -2.9332,1.69844c0.22251,1.51765 1.73227,2.95457 3.35523,3.19319c1.62302,0.23855 4.82884,2.45115 7.1239,4.9169l4.1732,4.48309l-8.06453,-6.33411l3.03817,3.59672c1.671,1.9782 3.71368,3.17859 4.53921,2.6676c1.55268,-0.96111 43.22986,39.34913 43.22986,41.81158c0,0.76273 -0.90728,0.86317 -2.01616,0.22317c-1.10888,-0.63994 -0.27737,0.74863 1.84736,3.08585c2.12498,2.33716 4.35938,3.94248 4.96545,3.56729c3.95868,-2.45048 29.92208,31.4953 52.53189,68.6836c25.89865,42.59616 53.30426,107.76651 65.19775,155.03724c1.00592,3.99835 2.15844,8.24399 2.56109,9.43522c1.03128,3.05007 12.28424,-6.71511 35.54877,-30.8487l0.0003,-0.0058zm-159.23003,-205.96532c-2.00629,-2.56222 -1.94923,-2.61937 0.609,-0.60996c2.68673,2.11039 3.54116,3.43705 2.21361,3.43705c-0.33468,0 -1.6051,-1.27219 -2.82261,-2.82709zm-6.24606,-7.30004c0,-0.2388 -7.43968,-7.69019 -16.53261,-16.5588l-16.53261,-16.12468l16.09918,16.5588c14.9525,15.37978 16.96604,17.29332 16.96604,16.12468zm-61.33892,416.6748c-16.04736,-14.49078 -39.00343,-38.38259 -42.40627,-44.13665c-0.69904,-1.18189 -0.06218,-1.71242 1.71977,-1.43198c1.69703,0.26743 2.62565,1.56899 2.3192,3.25125c-0.28103,1.54317 0.14814,2.39761 0.95416,1.89871c0.80584,-0.49884 3.90004,1.60911 6.87579,4.68433c2.97593,3.07522 4.87999,5.59134 4.23118,5.59134s-0.36942,1.51618 0.62077,3.36934c0.99019,1.8531 2.24306,2.92588 2.78415,2.38393c1.25714,-1.25913 16.59357,13.78434 15.63588,15.33643c-0.91185,1.47778 3.16083,4.90756 6.39176,5.38246c3.26513,0.47991 10.71816,7.56747 9.69767,9.22213c-0.44136,0.71474 0.67008,2.08859 2.4691,3.05294c1.79908,0.9644 3.27104,1.21895 3.27104,0.56539c0,-2.08597 3.82402,2.55868 4.19582,5.09635c0.1969,1.3418 0.21885,2.43961 0.04877,2.43961c-0.16947,0 -8.63329,-7.51801 -18.80889,-16.70595l0.00012,0.00037zm8.11207,4.8716c0,-0.28941 -1.99598,-2.2885 -4.43558,-4.44254l-4.43552,-3.91647l3.91022,4.44261c3.65473,4.15222 4.96088,5.18342 4.96088,3.91641zm-22.58116,-21.28282c-3.91784,-3.99835 -7.48601,-7.26951 -7.9298,-7.26951c-0.4438,0 2.39906,3.27134 6.31677,7.26951c3.91784,3.99829 7.48601,7.26951 7.9298,7.26951c0.4438,0 -2.39906,-3.27134 -6.31677,-7.26951zm-12.90361,-14.23739c0,-0.27781 -2.35888,-2.64068 -5.24197,-5.25034l-5.24203,-4.74478l4.73734,5.25027c4.41583,4.89407 5.74667,5.99286 5.74667,4.74484z"/>
		</symbol>		
		
		<symbol id="excel" viewBox="0 0 30 30">		
			<path fill-rule="evenodd" fill="#434440" d="m28.705,7.506l-5.461,-6.333l-1.08,-1.254l-12.902,0c-1.732,0 -3.133,1.403 -3.133,3.136l0,3.985l1.942,0l-0.001,-3.222c0.002,-0.975 0.786,-1.764 1.758,-1.764l11.034,-0.01l0,5.228c0.002,1.947 1.575,3.523 3.524,3.523l3.819,0l-0.188,15.081c-0.003,0.97 -0.79,1.753 -1.759,1.761l-16.57,-0.008c-0.887,0 -1.601,-0.87 -1.605,-1.942l0,-1.277l-1.945,0l0,1.904c0,1.912 1.282,3.468 2.856,3.468l17.831,-0.004c1.732,0 3.137,-1.41 3.137,-3.139l0,-17.673l-1.257,-1.46" clip-rule="evenodd"/>
			<path d="m20.223,25.382l-20.223,0l0,-19.314l20.223,0l0,19.314m-18.28,-1.944l16.333,0l0,-15.426l-16.333,0"/>
			<polyline points="15.73,20.822 12.325,20.822 10.001,17.538 7.561,20.822 4.14,20.822 8.384,15.486 4.957,10.817    8.412,10.817 10.016,13.355 11.726,10.817 15.242,10.817 11.649,15.486 15.73,20.822  "/>
		</symbol>		
   
		<symbol id="user" viewBox="0 0 512 512">		
			<path d="m492,198c-11.04687,0 -20,8.95313 -20,20l0,214c0,16.93359 -10.58203,31.43359 -25.47656,37.25781c0.77344,-5.57812 0.60156,-11.32031 -0.58594,-17.0039c-9.00781,-43.00782 -32.85156,-82.14063 -67.14453,-110.1836c-16.03906,-13.12109 -34.04688,-23.51172 -53.21484,-30.90625c21.67968,-19.07031 35.38671,-47.0039 35.38671,-78.07812c0,-57.34766 -46.65625,-104 -104,-104c-57.34765,0 -104,46.65234 -104,104c0,30.79687 13.46094,58.5039 34.80078,77.5625c-19.67187,7.42187 -38.14453,17.99609 -54.55859,31.42187c-34.29297,28.04297 -58.13672,67.17578 -67.14453,110.1836c-1.1875,5.68359 -1.35938,11.42187 -0.58594,17.0039c-14.89453,-5.82422 -25.47656,-20.32422 -25.47656,-37.25781l0,-352c0,-22.05469 17.94531,-40 40,-40l215,0c11.04688,0 20,-8.95312 20,-20s-8.95312,-20 -20,-20l-215,0c-44.11328,0 -80,35.88672 -80,80l0,352c0,44.11328 35.88672,80 80,80l352,0c44.11328,0 80,-35.88672 80,-80l0,-214c0,-11.04687 -8.95312,-20 -20,-20zm-235.03516,-28.91406c35.28907,0 64,28.71094 64,64c0,35.28906 -28.71093,64 -64,64c-35.28906,0 -64,-28.71094 -64,-64c0,-35.28906 28.71094,-64 64,-64zm-149.8164,299.36719c-1.07422,-1.31641 -2.75,-4.10938 -1.9336,-8c14.79297,-70.64063 78.11719,-121.99219 150.78516,-122.44141c72.66797,0.44922 135.99219,51.80078 150.78516,122.44141c0.8125,3.89062 -0.86328,6.68359 -1.9336,8c-1.07812,1.32421 -3.48047,3.54687 -7.5039,3.54687l-282.69532,0c-4.02343,0 -6.42968,-2.22266 -7.5039,-3.54687zm247.53515,-417.45313l36.85157,0c5.48437,0 10.34375,-2.10937 12.03906,-7.28906l11.38672,-35.02735c1.89453,-5.78906 6.96875,-8.68359 12.03906,-8.68359s10.14453,2.89453 12.03906,8.68359l11.38672,35.02735c1.69531,5.17969 6.55469,7.28906 12.03906,7.28906l36.85157,0c12.26171,0 17.35937,16.97266 7.4414,24.12891l-29.8164,21.51172c-4.4336,3.19921 -6.29297,8.87109 -4.59766,14.05078l12.00781,34.80078c0.50391,1.55078 0.69922,3.0625 0.63672,4.50781c-0.42578,9.34766 -12.14062,15.74219 -20.73437,9.54297l-29.8125,-21.51563c-2.21875,-1.59765 -4.83203,-2.39843 -7.44141,-2.39843s-5.22266,0.80078 -7.44141,2.39843l-29.8125,21.51563c-8.59375,6.19922 -20.36328,-0.19531 -20.73437,-9.54297c-0.05859,-1.44531 0.14062,-2.96094 0.64844,-4.50781l11.99609,-34.80078c1.69531,-5.17969 -0.16406,-10.85157 -4.59766,-14.05078l-29.8164,-21.51172c-9.92188,-7.15625 -4.82031,-24.12891 7.4414,-24.12891zm0,0"/>
		</symbol>		
		
		<symbol id="contact" viewBox="0 0 512 512">	
			<path d="m490.114,12.813l-357.546,0c-12.012,0.014 -21.746,9.748 -21.76,21.76l0,98.62l-16.35,-24.525c-7.484,-11.289 -22.535,-14.676 -34.133,-7.68l-33.638,20.224c-11.016,6.464 -19.097,16.946 -22.545,29.244c-12.271,44.681 -3.166,121.66 109.824,234.667c89.855,89.762 156.85,113.937 203.024,113.937c10.69,0.049 21.339,-1.34 31.659,-4.13c12.293,-3.448 22.775,-11.518 29.252,-22.519l20.198,-33.673c6.968,-11.589 3.584,-26.609 -7.68,-34.091l-80.546,-53.692c-11.049,-7.308 -25.859,-4.905 -34.031,5.521l-23.45,30.148c-2.451,3.226 -6.897,4.166 -10.445,2.21l-4.463,-2.458c-14.686,-8.004 -32.964,-17.971 -69.879,-54.886c-3.994,-3.994 -7.612,-7.731 -11.008,-11.307l333.517,0c11.982,0.009 21.713,-9.676 21.76,-21.658l0,-263.952c-0.014,-12.012 -9.748,-21.746 -21.76,-21.76zm-260.796,388.549l4.335,2.381c10.897,6.093 24.614,3.266 32.213,-6.639l23.45,-30.148c2.666,-3.396 7.49,-4.179 11.093,-1.801l80.546,53.692c3.659,2.439 4.759,7.321 2.5,11.093l-20.198,33.673c-4.218,7.233 -11.071,12.553 -19.123,14.848c-40.337,11.093 -110.933,1.707 -218.078,-105.446s-116.496,-177.742 -105.429,-218.045c2.293,-8.051 7.61,-14.903 14.839,-19.123l33.673,-20.207c3.773,-2.254 8.652,-1.155 11.093,2.5l53.717,80.546c2.382,3.602 1.599,8.43 -1.801,11.093l-30.157,23.458c-9.903,7.597 -12.731,21.311 -6.639,32.205l2.389,4.335c8.533,15.65 19.14,35.123 57.805,73.779c38.666,38.657 58.131,49.272 73.772,57.806zm265.49,-102.836c-0.028,2.567 -2.127,4.627 -4.693,4.608l-348.912,0c-11.083,-12.674 -20.64,-26.604 -28.476,-41.506l-2.458,-4.48c-1.96,-3.54 -1.022,-7.982 2.202,-10.428l30.157,-23.458c10.43,-8.17 12.833,-22.982 5.521,-34.031l-20.275,-30.43l0,-124.228c-0.014,-1.249 0.476,-2.451 1.359,-3.334c0.883,-0.883 2.085,-1.373 3.334,-1.359l357.547,0c1.249,-0.014 2.451,0.476 3.334,1.359c0.883,0.883 1.373,2.085 1.359,3.334l0,263.953l0.001,0z"/>
			<path d="m460.725,52.323l-142.618,108.16c-4.035,2.932 -9.499,2.932 -13.534,0l-142.565,-108.16c-3.756,-2.849 -9.111,-2.113 -11.959,1.643c-2.849,3.756 -2.113,9.111 1.643,11.959l142.583,108.151c10.144,7.494 23.989,7.494 34.133,0l142.626,-108.151c1.805,-1.368 2.992,-3.398 3.299,-5.642c0.307,-2.244 -0.29,-4.518 -1.661,-6.321c-2.848,-3.749 -8.194,-4.482 -11.947,-1.639z"/>
			<path d="m238.517,174.793l-87.415,93.611c-3.214,3.447 -3.025,8.848 0.422,12.062c3.447,3.214 8.848,3.025 12.062,-0.422l87.416,-93.653c2.888,-3.484 2.553,-8.617 -0.762,-11.698c-3.316,-3.081 -8.46,-3.037 -11.723,0.1z"/>
			<path d="m384.728,174.793c-3.214,-3.447 -8.614,-3.637 -12.062,-0.422c-3.447,3.214 -3.637,8.614 -0.422,12.062l87.39,93.611c3.214,3.447 8.614,3.637 12.062,0.422c3.447,-3.214 3.637,-8.614 0.422,-12.062l-87.39,-93.611z"/>
		</symbol>

		<symbol id="check" viewBox="0 0 512 512">	
		    <path d="m426.82579,272.436c-1.21923,-0.61496 -2.44061,-0.92191 -3.6716,-0.92191c-2.65023,0 -4.98495,1.0171 -7.01915,3.05557l-19.54409,19.54089c-1.82671,1.8342 -2.74434,4.07053 -2.74434,6.71969l0,77.55286c0,13.4383 -4.77319,24.93439 -14.34738,34.50644c-9.5667,9.5667 -21.07028,14.35059 -34.50644,14.35059l-254.05184,0c-13.43723,0 -24.93974,-4.78389 -34.50644,-14.35059c-9.56884,-9.57098 -14.35059,-21.06707 -14.35059,-34.50644l0,-254.04649c0,-13.43509 4.78175,-24.93653 14.35059,-34.50644c9.5667,-9.56777 21.06921,-14.35059 34.50644,-14.35059l254.05398,0c4.47908,0 9.05869,0.61069 13.7399,1.83313c1.22244,0.40427 2.13794,0.61069 2.74114,0.61069c2.65023,0 4.99244,-1.01496 7.02663,-3.05022l14.96234,-14.96234c2.44061,-2.43954 3.36038,-5.3935 2.74434,-8.85121c-0.61069,-3.25771 -2.44488,-5.59992 -5.49831,-7.02343c-10.98593,-5.08228 -22.90019,-7.63518 -35.7246,-7.63518l-254.04542,0c-24.22424,0 -44.93837,8.60094 -62.14025,25.80283c-17.19974,17.20402 -25.80069,37.91494 -25.80069,62.14025l0,254.05291c0,24.22103 8.60094,44.93409 25.80176,62.13598c17.20188,17.20616 37.91601,25.8071 62.14025,25.8071l254.05077,0c24.22103,0 44.9373,-8.60094 62.13918,-25.8071c17.20295,-17.20188 25.81138,-37.91388 25.81138,-62.13598l0,-97.10765c-0.00214,-4.27159 -2.0481,-7.22128 -6.11756,-8.85334z"/>
		    <path d="m503.47385,97.1648l-33.59201,-33.59201c-4.88549,-4.88442 -10.69075,-7.32716 -17.41044,-7.32716c-6.71113,0 -12.52067,2.44274 -17.40188,7.32716l-197.56498,197.56391l-80.30255,-80.3079c-4.88656,-4.88763 -10.68968,-7.32716 -17.40509,-7.32716c-6.71648,0 -12.51746,2.43954 -17.40509,7.32716l-33.58774,33.58774c-4.88549,4.88549 -7.33037,10.68861 -7.33037,17.4083c0,6.71648 2.44488,12.51746 7.33037,17.40509l131.29965,131.29965c4.88656,4.8887 10.68968,7.32716 17.40509,7.32716c6.71541,0 12.51746,-2.4374 17.40509,-7.32716l248.55674,-248.55567c4.88228,-4.88442 7.33037,-10.68861 7.33037,-17.40509s-2.44167,-12.5196 -7.32716,-17.40402z"/>
		</symbol>

		<symbol id="uncheck" viewBox="0 0 512 512">	
			<path d="m381.74084,508.89326l-285.06773,0c-51.34515,0 -93.13311,-41.78796 -93.13311,-93.10015l0,-320.66c0,-51.34515 41.78796,-93.13311 93.13311,-93.13311l285.06773,0c51.34515,0 93.10015,41.78796 93.10015,93.13311l0,320.66c0,51.34515 -41.75501,93.10015 -93.10015,93.10015zm-285.06773,-463.88594c-27.64992,0 -50.12578,22.50882 -50.12578,50.12578l0,320.66c0,27.61697 22.50882,50.12578 50.12578,50.12578l285.06773,0c27.64992,0 50.12578,-22.54177 50.12578,-50.12578l0,-320.66c0,-27.64992 -22.50882,-50.12578 -50.12578,-50.12578c0,0 -285.06773,0 -285.06773,0z"/>
		</symbol>

                <symbol id="recherche" viewBox="0 0 512 512">	
                    <path d="M505.749,475.587l-145.6-145.6c28.203-34.837,45.184-79.104,45.184-127.317c0-111.744-90.923-202.667-202.667-202.667 S0,90.925,0,202.669s90.923,202.667,202.667,202.667c48.213,0,92.48-16.981,127.317-45.184l145.6,145.6 c4.16,4.16,9.621,6.251,15.083,6.251s10.923-2.091,15.083-6.251C514.091,497.411,514.091,483.928,505.749,475.587z M202.667,362.669c-88.235,0-160-71.765-160-160s71.765-160,160-160s160,71.765,160,160S290.901,362.669,202.667,362.669z"/>
                </symbol>

                <symbol id="rechercheAvancee" viewBox="0 0 512 512">	
                    <path d="m420.404 0h-328.808c-50.506 0-91.596 41.09-91.596 91.596v328.809c0 50.505 41.09 91.595 91.596 91.595h328.809c50.505 0 91.595-41.09 91.595-91.596v-328.808c0-50.506-41.09-91.596-91.596-91.596zm61.596 420.404c0 33.964-27.632 61.596-61.596 61.596h-328.808c-33.964 0-61.596-27.632-61.596-61.596v-328.808c0-33.964 27.632-61.596 61.596-61.596h328.809c33.963 0 61.595 27.632 61.595 61.596z"/>
                    <path d="m432.733 112.467h-228.461c-6.281-18.655-23.926-32.133-44.672-32.133s-38.391 13.478-44.672 32.133h-35.661c-8.284 0-15 6.716-15 15s6.716 15 15 15h35.662c6.281 18.655 23.926 32.133 44.672 32.133s38.391-13.478 44.672-32.133h228.461c8.284 0 15-6.716 15-15s-6.716-15-15.001-15zm-273.133 32.133c-9.447 0-17.133-7.686-17.133-17.133s7.686-17.133 17.133-17.133 17.133 7.686 17.133 17.133-7.686 17.133-17.133 17.133z"/>
                    <path d="m432.733 241h-35.662c-6.281-18.655-23.927-32.133-44.672-32.133s-38.39 13.478-44.671 32.133h-228.461c-8.284 0-15 6.716-15 15s6.716 15 15 15h228.461c6.281 18.655 23.927 32.133 44.672 32.133s38.391-13.478 44.672-32.133h35.662c8.284 0 15-6.716 15-15s-6.716-15-15.001-15zm-80.333 32.133c-9.447 0-17.133-7.686-17.133-17.133s7.686-17.133 17.133-17.133 17.133 7.686 17.133 17.133-7.686 17.133-17.133 17.133z"/>
                    <path d="m432.733 369.533h-164.194c-6.281-18.655-23.926-32.133-44.672-32.133s-38.391 13.478-44.672 32.133h-99.928c-8.284 0-15 6.716-15 15s6.716 15 15 15h99.928c6.281 18.655 23.926 32.133 44.672 32.133s38.391-13.478 44.672-32.133h164.195c8.284 0 15-6.716 15-15s-6.716-15-15.001-15zm-208.866 32.134c-9.447 0-17.133-7.686-17.133-17.133s7.686-17.133 17.133-17.133 17.133 7.685 17.133 17.132-7.686 17.134-17.133 17.134z"/>
                </symbol>

                <symbol id="reset" viewBox="0 0 1100 1100">	
                    <path d="M500,132.3V10L279.6,204.8L500,399.5V268c161.9,0,293.2,131.3,293.2,293.2c0,161.9-131.3,293.2-293.2,293.2c-161.9,0-293.2-131.3-293.2-293.2c0-38.9,7.6-76,21.4-110l-127.7-46.3c-19,48.4-29.4,101.2-29.4,156.3C71.1,798,263.1,990,500,990c236.9,0,428.9-192,428.9-428.9C928.9,324.3,736.9,132.3,500,132.3z"/>
                    <path d="M408.4,569c0,48.3,39.1,87.4,87.4,87.4c48.3,0,87.4-39.1,87.4-87.4c0-48.3-39.1-87.4-87.4-87.4C447.6,481.7,408.4,520.8,408.4,569z"/>
                </symbol>
                
                <symbol id="euro" viewBox="0 0 512 512">	
                    <path d="M444.288,429.288c-5.4-13.2-10.9-26.4-16.9-39.4c-5.3-11.6-12.1-15-24.8-12.1c-16.1,3.7-31.9,8.6-48,11.9c-31.1,6.5-62.3,7.1-93-2.6c-38.5-12.1-59-40-71.6-76h104.4c8.2,0,14.8-6.6,14.8-14.8v-32.9c0-8.2-6.6-14.8-14.8-14.8h-114.4c0-9.2-0.1-18,0-26.8h114.4c8.2,0,14.8-6.6,14.8-14.8v-32.9c0-8.2-6.6-14.8-14.8-14.8h-100c0-0.4,0-0.8,0.2-1c12-27.3,29.5-49.2,58.2-60.6c33.4-13.2,67.5-12.9,101.9-5.8c16.3,3.3,32.3,8.3,48.6,12c11.9,2.7,18.8-0.8,23.9-11.9c5.9-12.8,11.3-25.8,16.7-38.9c5.1-12.3,2.1-21-9.5-27.8c-2.9-1.7-5.9-3.1-9-4.3c-48.2-18.8-97.9-25.8-149.2-17.6c-36.1,5.8-69.8,18.2-98.9,40.8c-36.7,28.4-60.5,65.9-74.3,110l-1.7,5.1h-51.4c-8.2,0-14.8,6.6-14.8,14.8v32.9c0,8.2,6.6,14.8,14.8,14.8h40.5c0,9,0,17.7,0,26.8h-40.5c-8.2,0-14.8,6.6-14.8,14.8v32.9c0,8.2,6.6,14.8,14.8,14.8h48.8c3.7,12,6.8,24.2,11.5,35.7c24.7,59.6,66.1,102,128.4,122.2c51.5,16.7,103.4,16.2,155.3,1.9c13.5-3.7,26.9-8.5,39.7-14.4C445.988,450.788,449.188,441.188,444.288,429.288z"/>
                </symbol>
                
                <symbol id="close" viewBox="0 0 24 24">	
                  <path d="M10.0303 8.96965C9.73741 8.67676 9.26253 8.67676 8.96964 8.96965C8.67675 9.26255 8.67675 9.73742 8.96964 10.0303L10.9393 12L8.96966 13.9697C8.67677 14.2625 8.67677 14.7374 8.96966 15.0303C9.26255 15.3232 9.73743 15.3232 10.0303 15.0303L12 13.0607L13.9696 15.0303C14.2625 15.3232 14.7374 15.3232 15.0303 15.0303C15.3232 14.7374 15.3232 14.2625 15.0303 13.9696L13.0606 12L15.0303 10.0303C15.3232 9.73744 15.3232 9.26257 15.0303 8.96968C14.7374 8.67678 14.2625 8.67678 13.9696 8.96968L12 10.9393L10.0303 8.96965Z"/>
                  <path d="M12 1.25C6.06294 1.25 1.25 6.06294 1.25 12C1.25 17.9371 6.06294 22.75 12 22.75C17.9371 22.75 22.75 17.9371 22.75 12C22.75 6.06294 17.9371 1.25 12 1.25ZM2.75 12C2.75 6.89137 6.89137 2.75 12 2.75C17.1086 2.75 21.25 6.89137 21.25 12C21.25 17.1086 17.1086 21.25 12 21.25C6.89137 21.25 2.75 17.1086 2.75 12Z"/>
                </symbol>

                <symbol id="trash" viewBox="0 0 24 24">	
                  <path d="M21,4H17.9A5.009,5.009,0,0,0,13,0H11A5.009,5.009,0,0,0,6.1,4H3A1,1,0,0,0,3,6H4V19a5.006,5.006,0,0,0,5,5h6a5.006,5.006,0,0,0,5-5V6h1a1,1,0,0,0,0-2ZM11,2h2a3.006,3.006,0,0,1,2.829,2H8.171A3.006,3.006,0,0,1,11,2Zm7,17a3,3,0,0,1-3,3H9a3,3,0,0,1-3-3V6H18Z"/>
                  <path d="M10,18a1,1,0,0,0,1-1V11a1,1,0,0,0-2,0v6A1,1,0,0,0,10,18Z"/>
                  <path d="M14,18a1,1,0,0,0,1-1V11a1,1,0,0,0-2,0v6A1,1,0,0,0,14,18Z"/>
                </symbol>
   	</defs>
 </svg>